<svg id="Layer_1" data-name="Layer 1" xmlns="http://www.w3.org/2000/svg" viewBox="0 0 371.89 267.02"><defs><style>.cls-1{fill:#425cc7;}.cls-2{fill:#f6f6f3;}.cls-3{fill:none;}.cls-4{fill:#f9f9f8;}</style></defs><path class="cls-1" d="M53.19,73.89a13.74,13.74,0,0,1,13.7-13.7H219V48.7A16.79,16.79,0,0,0,202.26,32h-134A16.79,16.79,0,0,0,51.47,48.7V68.1a16.58,16.58,0,0,0,1.72,7.33Z"/><path class="cls-1" d="M296.31,239.91h0a1,1,0,0,1,0-2.1h3.49a12.52,12.52,0,0,0,4.41-.8h0a1.08,1.08,0,0,1,1.35.61A1.05,1.05,0,0,1,305,239a14.63,14.63,0,0,1-5.16.93Zm-5.24,0a1,1,0,0,1,0-2.09,1,1,0,1,1,0,2.09Zm-3.48,0h-8.73a1,1,0,0,1,0-2.09h8.73a1,1,0,0,1,0,2.09Zm-14,0a1,1,0,1,1,1.05-1A1,1,0,0,1,273.63,239.9Zm-3.49,0h-8.72a1,1,0,1,1,0-2.09h8.72a1,1,0,1,1,0,2.09Zm-13.95,0a1,1,0,1,1,1-1A1,1,0,0,1,256.19,239.9Zm-3.49,0H244a1,1,0,1,1,0-2.09h8.72a1,1,0,0,1,0,2.09Zm-14,0a1,1,0,0,1,0-2.09,1,1,0,1,1,0,2.09Zm-3.49,0h-8.72a1,1,0,1,1,0-2.09h8.72a1,1,0,1,1,0,2.09Zm-13.95,0a1,1,0,1,1,1-1A1,1,0,0,1,221.3,239.9Zm-3.49,0h-8.72a1,1,0,1,1,0-2.09h8.72a1,1,0,1,1,0,2.09Zm-14,0a1,1,0,0,1,0-2.09,1,1,0,1,1,0,2.09Zm-3.49,0h-8.72a1,1,0,1,1,0-2.09h8.72a1,1,0,1,1,0,2.09Zm-14,0a1,1,0,1,1,1.05-1A1,1,0,0,1,186.41,239.9Zm-3.49,0H174.2a1,1,0,1,1,0-2.09h8.72a1,1,0,1,1,0,2.09Zm-14,0a1,1,0,0,1,0-2.09,1,1,0,1,1,0,2.09Zm-3.48,0h-8.73a1,1,0,0,1,0-2.09h8.73a1,1,0,0,1,0,2.09Zm-14,0a1,1,0,1,1,1-1A1,1,0,0,1,151.52,239.9Zm-3.49,0h-8.72a1,1,0,1,1,0-2.09H148a1,1,0,1,1,0,2.09Zm-14,0a1,1,0,0,1,0-2.09,1,1,0,1,1,0,2.09Zm-3.48,0h-8.72a1,1,0,1,1,0-2.09h8.72a1,1,0,0,1,0,2.09Zm-14,0a1,1,0,0,1,0-2.09,1,1,0,1,1,0,2.09Zm-3.49,0h-8.72a1,1,0,0,1,0-2.09h8.72a1,1,0,1,1,0,2.09Zm-14,0a1,1,0,1,1,1-1A1,1,0,0,1,99.19,239.9Zm-3.49,0H87a1,1,0,1,1,0-2.09H95.7a1,1,0,1,1,0,2.09Zm-14,0a1,1,0,0,1,0-2.09,1,1,0,1,1,0,2.09Zm-3.48,0H69.53a1,1,0,0,1,0-2.09h8.73a1,1,0,0,1,0,2.09Zm-13.94-.24h-.2a0,0,0,0,0,0,0,1,1,0,0,1-.82-1.22,1,1,0,0,1,1.21-.83h0a1,1,0,0,1-.2,2.07ZM61,238.57a1,1,0,0,1-.45-.1,14.73,14.73,0,0,1-4.5-3.32h0a14.61,14.61,0,0,1-2.17-3.05,1,1,0,0,1,.42-1.42,1.08,1.08,0,0,1,1.42.43,12.91,12.91,0,0,0,1.87,2.62,12.65,12.65,0,0,0,3.86,2.85,1,1,0,0,1-.45,2Zm246.65-1.16a1.06,1.06,0,0,1-1-1.23,1,1,0,0,1,.43-.67,1,1,0,0,1,1.21,1.71A1.1,1.1,0,0,1,307.66,237.41Zm3.61-3.74a1,1,0,0,1-.87-1.62,12.73,12.73,0,0,0,1.4-2.9,12.54,12.54,0,0,0,.65-4v-.83a1,1,0,0,1,2.09,0v.83a14.55,14.55,0,0,1-.73,4.59.19.19,0,0,0,0,.07,14.6,14.6,0,0,1-1.64,3.37A1,1,0,0,1,311.27,233.67Zm-258-6a1.08,1.08,0,1,1,.12,0Zm-.08-3.49a1,1,0,0,1-1-1v-8.72a1,1,0,0,1,2.09,0v8.72A1,1,0,0,1,53.18,224.2Zm260.32-2.31a1,1,0,1,1,0-2.09,1,1,0,0,1,0,2.09Zm0-5.24a1,1,0,0,1-1.05-1v-8.72a1,1,0,1,1,2.09,0v8.72A1,1,0,0,1,313.5,216.65Zm-260.32-6.4a1.05,1.05,0,1,1,1-1.05A1,1,0,0,1,53.18,210.25Zm0-3.49a1,1,0,0,1-1-1V197a1,1,0,1,1,2.09,0v8.72A1,1,0,0,1,53.18,206.76Zm260.32-2.32a1,1,0,1,1,1-1A1,1,0,0,1,313.5,204.44Zm0-5.23a1,1,0,0,1-1.05-1v-8.73a1,1,0,0,1,2.09,0v8.73A1,1,0,0,1,313.5,199.21ZM53.18,192.8a1,1,0,1,1,1-1A1,1,0,0,1,53.18,192.8Zm0-3.49a1,1,0,0,1-1-1v-8.73a1,1,0,0,1,2.09,0v8.73A1,1,0,0,1,53.18,189.31ZM313.5,187a1,1,0,1,1,0-2.09,1,1,0,0,1,0,2.09Zm0-5.23a1,1,0,0,1-1.05-1.05V172a1,1,0,1,1,2.09,0v8.72A1,1,0,0,1,313.5,181.77ZM53.18,175.36a1.05,1.05,0,1,1,1-1.05A1,1,0,0,1,53.18,175.36Zm0-3.49a1,1,0,0,1-1-1.05V162.1a1,1,0,1,1,2.09,0v8.72A1,1,0,0,1,53.18,171.87Zm260.32-2.31a1.05,1.05,0,1,1,1-1.05A1,1,0,0,1,313.5,169.56Zm0-5.24a1,1,0,0,1-1.05-1v-8.72a1,1,0,1,1,2.09,0v8.72A1,1,0,0,1,313.5,164.32ZM53.18,157.91a1,1,0,0,1,0-2.09,1,1,0,1,1,0,2.09Zm0-3.49a1,1,0,0,1-1-1v-8.72a1,1,0,1,1,2.09,0v8.72A1,1,0,0,1,53.18,154.42Zm260.32-2.31a1,1,0,1,1,0-2.09,1,1,0,0,1,0,2.09Zm0-5.23a1,1,0,0,1-1.05-1v-8.72a1,1,0,1,1,2.09,0v8.72A1,1,0,0,1,313.5,146.88ZM53.18,140.47a1,1,0,1,1,1-1.05A1,1,0,0,1,53.18,140.47Zm0-3.49a1,1,0,0,1-1-1v-8.72a1,1,0,1,1,2.09,0v8.72A1,1,0,0,1,53.18,137Zm260.32-2.31a1.05,1.05,0,1,1,1-1A1,1,0,0,1,313.5,134.67Zm0-5.23a1,1,0,0,1-1.05-1.05v-8.72a1,1,0,1,1,2.09,0v8.72A1,1,0,0,1,313.5,129.44ZM53.18,123a1,1,0,0,1,0-2.09,1,1,0,1,1,0,2.09Zm0-3.48a1,1,0,0,1-1-1.05v-8.72a1,1,0,1,1,2.09,0v8.72A1,1,0,0,1,53.18,119.54Zm260.32-2.32a1,1,0,1,1,1-1A1,1,0,0,1,313.5,117.22Zm0-5.23a1,1,0,0,1-1.05-1v-8.72a1,1,0,0,1,2.09,0v8.72A1,1,0,0,1,313.5,112ZM53.18,105.58a1,1,0,1,1,1-1A1,1,0,0,1,53.18,105.58Zm0-3.49a1,1,0,0,1-1-1V92.33a1,1,0,1,1,2.09,0v8.72A1,1,0,0,1,53.18,102.09ZM313.5,99.78a1,1,0,1,1,0-2.09,1,1,0,0,1,0,2.09Zm0-5.23a1,1,0,0,1-1.05-1V84.78a1,1,0,1,1,2.09,0V93.5A1,1,0,0,1,313.5,94.55ZM53.18,88.14a1,1,0,1,1,1-1A1,1,0,0,1,53.18,88.14Zm0-3.49a1,1,0,0,1-1-1.05V74.88a1,1,0,1,1,2.09,0V83.6A1,1,0,0,1,53.18,84.65ZM313.5,82.33a1,1,0,1,1,1-1A1,1,0,0,1,313.5,82.33Zm0-5.23a1,1,0,0,1-1.05-1V73.89c0-.41,0-.82-.06-1.22A12.37,12.37,0,0,0,311,68.08a0,0,0,0,0,0,0,1.06,1.06,0,0,1-.07-.8,1,1,0,0,1,.52-.61,1.07,1.07,0,0,1,1.41.44,14.51,14.51,0,0,1,1.6,5.37c0,.45.06.93.06,1.42v2.17A1,1,0,0,1,313.5,77.1ZM53.84,70.76a1.13,1.13,0,0,1-.32-.05,1,1,0,0,1-.68-1.3h0a1.06,1.06,0,0,1,1.32-.68,1,1,0,0,1-.32,2Zm1.48-3.15a1,1,0,0,1-.56-.16,1.09,1.09,0,0,1-.47-.66,1,1,0,0,1,.15-.78,14.74,14.74,0,0,1,3.83-4.08l0,0a14.73,14.73,0,0,1,3.24-1.76,1,1,0,0,1,.76,2,12.8,12.8,0,0,0-6.12,5A1,1,0,0,1,55.32,67.61ZM310,65.78a1.05,1.05,0,0,1-.78-.35,1,1,0,0,1-.27-.75,1,1,0,0,1,1.82-.65,1,1,0,0,1,.27.75,1,1,0,0,1-.34.73A1.06,1.06,0,0,1,310,65.78Zm-4.15-3.14a1,1,0,0,1-.46-.11,12.28,12.28,0,0,0-3-1,12.46,12.46,0,0,0-2.52-.26h-2.48a1,1,0,1,1,0-2.09h2.48a14.74,14.74,0,0,1,6.48,1.51,1,1,0,0,1,.53.6,1.05,1.05,0,0,1-1,1.39Zm-12-1.41a1,1,0,1,1,1-1A1,1,0,0,1,293.83,61.23Zm-5.23,0h-8.73a1,1,0,0,1,0-2.09h8.73a1,1,0,0,1,0,2.09Zm-12.22,0a1,1,0,1,1,1.05-1A1,1,0,0,1,276.38,61.23Zm-5.23,0h-8.72a1,1,0,1,1,0-2.09h8.72a1,1,0,1,1,0,2.09Zm-12.21,0a1,1,0,1,1,1-1A1,1,0,0,1,258.94,61.23Zm-5.23,0H245a1,1,0,0,1,0-2.09h8.73a1,1,0,0,1,0,2.09Zm-12.22,0a1,1,0,1,1,1-1A1,1,0,0,1,241.49,61.23Zm-5.23,0h-8.72a1,1,0,1,1,0-2.09h8.72a1,1,0,1,1,0,2.09Zm-12.21,0a1,1,0,1,1,1-1A1,1,0,0,1,224.05,61.23Zm-5.23,0H210.1a1,1,0,1,1,0-2.09h8.72a1,1,0,0,1,0,2.09Zm-12.21,0a1,1,0,1,1,1-1A1,1,0,0,1,206.61,61.23Zm-5.24,0h-8.72a1,1,0,1,1,0-2.09h8.72a1,1,0,1,1,0,2.09Zm-12.21,0a1,1,0,1,1,1.05-1A1,1,0,0,1,189.16,61.23Zm-5.23,0h-8.72a1,1,0,1,1,0-2.09h8.72a1,1,0,1,1,0,2.09Zm-12.21,0a1,1,0,1,1,1.05-1A1,1,0,0,1,171.72,61.23Zm-5.23,0h-8.73a1,1,0,0,1,0-2.09h8.73a1,1,0,0,1,0,2.09Zm-12.22,0a1,1,0,1,1,1-1A1,1,0,0,1,154.27,61.23Zm-5.23,0h-8.72a1,1,0,1,1,0-2.09H149a1,1,0,1,1,0,2.09Zm-12.21,0a1,1,0,1,1,1-1A1,1,0,0,1,136.83,61.23Zm-5.23,0h-8.72a1,1,0,1,1,0-2.09h8.72a1,1,0,0,1,0,2.09Zm-12.21,0a1,1,0,1,1,1-1A1,1,0,0,1,119.39,61.23Zm-5.24,0h-8.72a1,1,0,1,1,0-2.09h8.72a1,1,0,1,1,0,2.09Zm-12.21,0a1,1,0,0,1,0-2.09,1,1,0,1,1,0,2.09Zm-5.23,0H88a1,1,0,1,1,0-2.09h8.72a1,1,0,0,1,0,2.09Zm-12.21,0a1,1,0,1,1,1-1A1,1,0,0,1,84.5,61.23Zm-5.24,0H70.54a1,1,0,1,1,0-2.09h8.72a1,1,0,1,1,0,2.09Zm-12.21,0a1,1,0,1,1,1-1A1,1,0,0,1,67.05,61.23Z"/><path class="cls-2" d="M61.16,43.55h1.43v1.08h0a2.75,2.75,0,0,1,1.15-.94,3.56,3.56,0,0,1,1.49-.34,4.1,4.1,0,0,1,1.59.31,3.46,3.46,0,0,1,1.21.84,3.83,3.83,0,0,1,.77,1.27,4.51,4.51,0,0,1,0,3.13,3.51,3.51,0,0,1-.77,1.26,3.46,3.46,0,0,1-1.21.84,4.1,4.1,0,0,1-1.59.31A3.47,3.47,0,0,1,63.73,51,2.69,2.69,0,0,1,62.62,50h0v5.59H61.16Zm3.92,1.15a2.59,2.59,0,0,0-1,.19,2.49,2.49,0,0,0-.79.55,2.43,2.43,0,0,0-.49.83,3.21,3.21,0,0,0,0,2.12,2.43,2.43,0,0,0,.49.83,2.31,2.31,0,0,0,.79.54,2.43,2.43,0,0,0,1,.2,2.48,2.48,0,0,0,1-.2,2.18,2.18,0,0,0,.78-.54,2.3,2.3,0,0,0,.5-.83,3.39,3.39,0,0,0,0-2.12,2.3,2.3,0,0,0-.5-.83,2.34,2.34,0,0,0-.78-.55A2.64,2.64,0,0,0,65.08,44.7Z"/><path class="cls-2" d="M72.4,47.86a1.93,1.93,0,0,0,.21.9,2.11,2.11,0,0,0,.57.69,2.65,2.65,0,0,0,.81.45,2.85,2.85,0,0,0,1,.16,2.13,2.13,0,0,0,1.17-.31,3.83,3.83,0,0,0,.9-.82l1.09.83a4,4,0,0,1-3.35,1.55A4.18,4.18,0,0,1,73.14,51a3.37,3.37,0,0,1-1.23-.84,3.53,3.53,0,0,1-.78-1.26,4.46,4.46,0,0,1-.27-1.57,4.07,4.07,0,0,1,.3-1.57A3.74,3.74,0,0,1,72,44.5a3.68,3.68,0,0,1,1.24-.84,4,4,0,0,1,1.56-.31,3.65,3.65,0,0,1,1.7.36,3.37,3.37,0,0,1,1.15.91,3.76,3.76,0,0,1,.64,1.28,5.08,5.08,0,0,1,.2,1.45v.51Zm4.53-1.15a3.06,3.06,0,0,0-.15-.88,1.91,1.91,0,0,0-1.09-1.16,2.52,2.52,0,0,0-1-.17,2.32,2.32,0,0,0-1,.2,2.57,2.57,0,0,0-.75.52,2.51,2.51,0,0,0-.47.71,2,2,0,0,0-.16.78Z"/><path class="cls-2" d="M80.59,43.55H82v1.16h0a2.3,2.3,0,0,1,.39-.55,2.39,2.39,0,0,1,.53-.42,2.71,2.71,0,0,1,.65-.28,2.43,2.43,0,0,1,.7-.11,2.1,2.1,0,0,1,.64.1L84.9,45l-.36-.08a2,2,0,0,0-.35,0,2.09,2.09,0,0,0-1.61.59A2.59,2.59,0,0,0,82,47.31v3.8H80.59Z"/><path class="cls-2" d="M90.91,45.45a2.2,2.2,0,0,0-.63-.54,1.83,1.83,0,0,0-.91-.21,1.8,1.8,0,0,0-.89.21.69.69,0,0,0-.38.63.72.72,0,0,0,.22.54,1.52,1.52,0,0,0,.51.34,2.7,2.7,0,0,0,.63.19l.58.11a8.93,8.93,0,0,1,.87.27,2.55,2.55,0,0,1,.7.42,1.76,1.76,0,0,1,.46.62,2.22,2.22,0,0,1,.17.9A2.1,2.1,0,0,1,92,50a2.36,2.36,0,0,1-.7.74,3.15,3.15,0,0,1-1,.42,5.11,5.11,0,0,1-1.11.13A4.46,4.46,0,0,1,87.52,51,3.05,3.05,0,0,1,86.25,50l1.09-.89a4.34,4.34,0,0,0,.78.62,2,2,0,0,0,1,.27,2.65,2.65,0,0,0,.56-.05,1.78,1.78,0,0,0,.49-.18,1.14,1.14,0,0,0,.35-.3.68.68,0,0,0,.14-.42.74.74,0,0,0-.2-.53,1.47,1.47,0,0,0-.48-.33,3.7,3.7,0,0,0-.59-.19l-.55-.12c-.31-.07-.6-.16-.88-.25a2.89,2.89,0,0,1-.74-.39,1.85,1.85,0,0,1-.51-.6,2.08,2.08,0,0,1-.19-.91,2,2,0,0,1,.25-1,2.08,2.08,0,0,1,.65-.73,2.93,2.93,0,0,1,.93-.43,3.79,3.79,0,0,1,2.51.14,2.28,2.28,0,0,1,1.12,1Z"/><path class="cls-2" d="M94,47.33a4,4,0,0,1,.31-1.55,4,4,0,0,1,2.13-2.11,4.09,4.09,0,0,1,3.17,0,3.94,3.94,0,0,1,1.27.85,4.09,4.09,0,0,1,.86,1.26,4,4,0,0,1,.31,1.55A3.93,3.93,0,0,1,99.62,51a4.09,4.09,0,0,1-3.17,0,4.08,4.08,0,0,1-1.27-.84,3.92,3.92,0,0,1-.86-1.26A4.1,4.1,0,0,1,94,47.33Zm1.53,0a3,3,0,0,0,.18,1.06,2.3,2.3,0,0,0,.5.83,2.18,2.18,0,0,0,.78.54,2.78,2.78,0,0,0,2.07,0,2.18,2.18,0,0,0,.78-.54,2.3,2.3,0,0,0,.5-.83,3.21,3.21,0,0,0,0-2.12,2.3,2.3,0,0,0-.5-.83,2.34,2.34,0,0,0-.78-.55,2.91,2.91,0,0,0-2.07,0,2.34,2.34,0,0,0-.78.55,2.3,2.3,0,0,0-.5.83A3,3,0,0,0,95.54,47.33Z"/><path class="cls-2" d="M104.26,43.55h1.44v1.16h0a2.16,2.16,0,0,1,.94-1,3.15,3.15,0,0,1,1.55-.38,3.39,3.39,0,0,1,1,.17,2.45,2.45,0,0,1,.88.52,2.61,2.61,0,0,1,.59.9,3.43,3.43,0,0,1,.23,1.3v4.87h-1.44V46.64a2.66,2.66,0,0,0-.14-.9,1.64,1.64,0,0,0-.39-.6,1.37,1.37,0,0,0-.55-.34,2,2,0,0,0-.64-.1,2.23,2.23,0,0,0-.83.14,1.69,1.69,0,0,0-.67.45,2,2,0,0,0-.45.79,3.52,3.52,0,0,0-.16,1.14v3.89h-1.44Z"/><path class="cls-2" d="M113.57,44.47a4.06,4.06,0,0,1,1.4-.84,5,5,0,0,1,1.6-.28,4.35,4.35,0,0,1,1.43.21,2.8,2.8,0,0,1,1,.56,2.07,2.07,0,0,1,.57.81,2.55,2.55,0,0,1,.18,1v3.86c0,.27,0,.51,0,.73a6.16,6.16,0,0,0,0,.64h-1.28c0-.38,0-.76,0-1.15h0a2.78,2.78,0,0,1-1.13,1,3.65,3.65,0,0,1-1.52.31,3.38,3.38,0,0,1-1-.15,2.39,2.39,0,0,1-.84-.43,2.06,2.06,0,0,1-.56-.71,2.43,2.43,0,0,1,.12-2.21,2.49,2.49,0,0,1,.89-.81,4.52,4.52,0,0,1,1.33-.44,9.14,9.14,0,0,1,1.62-.14h1V46.1a1.65,1.65,0,0,0-.11-.57,1.62,1.62,0,0,0-.89-.89,2.16,2.16,0,0,0-.8-.14,3.13,3.13,0,0,0-.73.08,3.79,3.79,0,0,0-.57.2,3,3,0,0,0-.46.28l-.4.31Zm4.05,3a9.33,9.33,0,0,0-1,.06,4.14,4.14,0,0,0-1,.22,1.75,1.75,0,0,0-.71.44,1,1,0,0,0-.28.74,1,1,0,0,0,.44.94,2.14,2.14,0,0,0,1.19.29,2.35,2.35,0,0,0,1-.2,2,2,0,0,0,.67-.52,2.19,2.19,0,0,0,.37-.71,3,3,0,0,0,.11-.78v-.48Z"/><path class="cls-2" d="M122.33,39h1.44V51.11h-1.44Z"/><path class="cls-2" d="M138.87,51.11h-1.43V50h0a2.66,2.66,0,0,1-1.14.94,3.56,3.56,0,0,1-1.49.34,4.1,4.1,0,0,1-1.59-.31,3.46,3.46,0,0,1-1.21-.84,4,4,0,0,1-.78-1.27,4.37,4.37,0,0,1-.27-1.56,4.46,4.46,0,0,1,.27-1.57A3.67,3.67,0,0,1,132,44.5a3.46,3.46,0,0,1,1.21-.84,4.1,4.1,0,0,1,1.59-.31,3.5,3.5,0,0,1,1.53.35,2.6,2.6,0,0,1,1.1.93h0V39h1.43ZM135,50a2.43,2.43,0,0,0,1-.2,2.31,2.31,0,0,0,.79-.54,2.43,2.43,0,0,0,.49-.83,3.21,3.21,0,0,0,0-2.12,2.43,2.43,0,0,0-.49-.83,2.49,2.49,0,0,0-.79-.55,2.59,2.59,0,0,0-1-.19,2.64,2.64,0,0,0-1,.19,2.34,2.34,0,0,0-.78.55,2.3,2.3,0,0,0-.5.83,3.39,3.39,0,0,0,0,2.12,2.3,2.3,0,0,0,.5.83,2.18,2.18,0,0,0,.78.54A2.48,2.48,0,0,0,135,50Z"/><path class="cls-2" d="M141.48,44.47a4.06,4.06,0,0,1,1.4-.84,5,5,0,0,1,1.6-.28,4.35,4.35,0,0,1,1.43.21,2.9,2.9,0,0,1,1,.56,2.3,2.3,0,0,1,.57.81,2.55,2.55,0,0,1,.18,1v3.86c0,.27,0,.51,0,.73s0,.44,0,.64h-1.27a10.94,10.94,0,0,1-.05-1.15h0a2.74,2.74,0,0,1-1.14,1,3.57,3.57,0,0,1-1.51.31,3.33,3.33,0,0,1-1-.15,2.39,2.39,0,0,1-.84-.43,2.08,2.08,0,0,1-.57-.71,2.32,2.32,0,0,1-.2-1,2.25,2.25,0,0,1,.32-1.23,2.53,2.53,0,0,1,.9-.81,4.55,4.55,0,0,1,1.32-.44,9.31,9.31,0,0,1,1.62-.14h1.06V46.1a1.65,1.65,0,0,0-.11-.57,1.51,1.51,0,0,0-.34-.52,1.48,1.48,0,0,0-.56-.37,2.12,2.12,0,0,0-.8-.14,3.11,3.11,0,0,0-.72.08,3.79,3.79,0,0,0-.57.2,3,3,0,0,0-.46.28l-.4.31Zm4.05,3a9.2,9.2,0,0,0-1,.06,4,4,0,0,0-1,.22,1.86,1.86,0,0,0-.72.44,1.18,1.18,0,0,0,.16,1.68,2.18,2.18,0,0,0,1.19.29,2.36,2.36,0,0,0,1-.2,2,2,0,0,0,.67-.52,2.19,2.19,0,0,0,.37-.71,3,3,0,0,0,.11-.78v-.48Z"/><path class="cls-2" d="M154.19,44.79h-2.06v3.43c0,.22,0,.43,0,.63a1.59,1.59,0,0,0,.12.56.91.91,0,0,0,.32.4,1.08,1.08,0,0,0,.63.15,3.23,3.23,0,0,0,.53,0,1.6,1.6,0,0,0,.49-.18v1.31a1.84,1.84,0,0,1-.66.2,4.6,4.6,0,0,1-.63.06,2.85,2.85,0,0,1-1.29-.24,1.58,1.58,0,0,1-.67-.6,2,2,0,0,1-.25-.82c0-.3,0-.61,0-.92V44.79H149V43.55h1.66V41.42h1.44v2.13h2.06Z"/><path class="cls-2" d="M156.47,44.47a4.06,4.06,0,0,1,1.4-.84,5,5,0,0,1,1.6-.28,4.35,4.35,0,0,1,1.43.21,2.9,2.9,0,0,1,1,.56,2.17,2.17,0,0,1,.57.81,2.55,2.55,0,0,1,.18,1v3.86c0,.27,0,.51,0,.73s0,.44,0,.64h-1.27c0-.38,0-.76,0-1.15h0a2.74,2.74,0,0,1-1.14,1,3.57,3.57,0,0,1-1.51.31,3.38,3.38,0,0,1-1-.15,2.39,2.39,0,0,1-.84-.43,1.94,1.94,0,0,1-.56-.71,2.43,2.43,0,0,1,.12-2.21,2.41,2.41,0,0,1,.89-.81,4.55,4.55,0,0,1,1.32-.44,9.34,9.34,0,0,1,1.63-.14h1V46.1a1.65,1.65,0,0,0-.11-.57,1.51,1.51,0,0,0-.34-.52,1.48,1.48,0,0,0-.56-.37,2.12,2.12,0,0,0-.8-.14,3.11,3.11,0,0,0-.72.08,3.79,3.79,0,0,0-.57.2,3,3,0,0,0-.46.28l-.4.31Zm4.05,3a9.2,9.2,0,0,0-1,.06,4.14,4.14,0,0,0-1,.22,1.86,1.86,0,0,0-.72.44,1.2,1.2,0,0,0,.16,1.68,2.18,2.18,0,0,0,1.19.29,2.36,2.36,0,0,0,1-.2,2,2,0,0,0,.67-.52,2.19,2.19,0,0,0,.37-.71,3,3,0,0,0,.11-.78v-.48Z"/><path class="cls-2" d="M176.86,125.51a20.12,20.12,0,0,1-9.14-3.6c-6.35-4.49-12.8-8.86-19.12-13.4-3.7-2.65-7.26-5.48-10.81-8.32-2.59-2.09-5.06-4.32-7.57-6.5a11,11,0,0,1-2.58-3,3.53,3.53,0,0,1,.09-4,15.81,15.81,0,0,1,2.91-3.19q7.94-5.86,16-11.53c5.47-3.83,11-7.54,16.55-11.28q6.84-4.63,13.71-9.24c7.2-4.85,14.4-9.67,21.58-14.54q9.17-6.21,18.29-12.51c1.92-1.33,3.77-2.75,5.62-4.18,1.57-1.2,3-2.53,4.64-3.67a17.29,17.29,0,0,1,9.34-3.33,14.75,14.75,0,0,1,6.92,1.57,42.39,42.39,0,0,1,7.57,4.82c3.79,2.86,7.52,5.81,11.33,8.65,3.42,2.54,6.93,5,10.38,7.47,3,2.18,6,4.42,9,6.61a8.06,8.06,0,0,1,2.29,11.49,17.47,17.47,0,0,1-5.67,5.61c-3.64,2.39-7.08,5-10.55,7.67Q260,72.94,252.21,78.6c-5,3.66-10.11,7.25-15.19,10.83Q224.8,98,212.55,106.59c-4.15,2.92-8.27,5.88-12.41,8.79a120,120,0,0,1-10.58,7.19,21.94,21.94,0,0,1-10.82,3.06C178.31,125.6,177.58,125.6,176.86,125.51Z"/><path class="cls-2" d="M188.71,114.34c4.35-3.19,8.78-6.27,13.19-9.38q5.55-3.92,11.15-7.76c4.6-3.18,9.24-6.31,13.84-9.49,6.79-4.68,13.55-9.4,20.34-14.09,4.35-3,8.76-5.94,13.08-9,4-2.84,8-5.82,12-8.68,3.06-2.17,6.2-4.26,9.31-6.37a5.27,5.27,0,0,0,.19-8.6c-4.38-3.21-8.8-6.37-13.18-9.58q-4.75-3.48-9.44-7c-4.47-3.41-8.84-6.94-13.57-10a18.49,18.49,0,0,0-6.38-2.7,13.51,13.51,0,0,0-7.34.67,22.52,22.52,0,0,0-7.27,4.53A94,94,0,0,1,215.08,24q-9.68,6.6-19.36,13.19c-7.27,4.93-14.58,9.83-21.86,14.75-8.89,6-17.8,12-26.63,18-5.45,3.75-10.77,7.7-16.13,11.6-1,.72-2,1.61-1.59,3a5.18,5.18,0,0,0,1.25,2.21c1.54,1.54,3.17,3,4.83,4.39,2.26,1.91,4.51,3.85,6.9,5.61q6.85,5.07,13.89,9.93c4.43,3.06,9,6,13.44,9a14.77,14.77,0,0,0,8.31,2.42A17.45,17.45,0,0,0,188.71,114.34Z"/><path class="cls-3" d="M176.86,122.68a20.22,20.22,0,0,1-9.14-3.59c-6.35-4.49-12.8-8.86-19.12-13.4-3.7-2.65-7.26-5.48-10.81-8.33-2.59-2.08-5.06-4.31-7.57-6.5a11,11,0,0,1-2.58-3,3.51,3.51,0,0,1,.09-4,15.29,15.29,0,0,1,2.91-3.19q7.94-5.88,16-11.54c5.47-3.82,11-7.53,16.55-11.28q6.84-4.63,13.71-9.24,10.8-7.26,21.58-14.54,9.17-6.21,18.29-12.51c1.92-1.32,3.77-2.75,5.62-4.17,1.57-1.2,3-2.54,4.64-3.68a17.28,17.28,0,0,1,9.34-3.32A14.62,14.62,0,0,1,243.31,12a41.89,41.89,0,0,1,7.57,4.83c3.79,2.86,7.52,5.81,11.33,8.64,3.42,2.55,6.93,5,10.38,7.47,3,2.19,6,4.43,9,6.62a8.4,8.4,0,0,1,3.13,3.67,8.49,8.49,0,0,1-.84,7.82,17.53,17.53,0,0,1-5.67,5.6c-3.64,2.39-7.08,5-10.55,7.68Q260,70.11,252.21,75.77c-5,3.66-10.11,7.26-15.19,10.84q-12.22,8.6-24.47,17.16c-4.15,2.91-8.27,5.87-12.41,8.79a122.23,122.23,0,0,1-10.58,7.19,22,22,0,0,1-10.82,3C178.31,122.77,177.58,122.78,176.86,122.68Zm86.36-58c-1.61,1.13-3.19,2.3-4.78,3.46a1.43,1.43,0,0,0-.45.39,2.9,2.9,0,0,0-.25.66c.23,0,.52.08.69,0,.86-.55,1.69-1.15,2.53-1.74,1-.75,2.1-1.48,3.11-2.27a11.52,11.52,0,0,0,1.2-1.22l-.18-.25A17.59,17.59,0,0,0,263.22,64.71ZM254.55,71c-1.62,1-3.21,2.07-4.79,3.12a2.93,2.93,0,0,0-.68.68.57.57,0,0,0,0,.48c0,.07.29.1.41,0a5.84,5.84,0,0,0,1-.5c1.51-1,3-2.12,4.53-3.19.58-.42,1.12-.88,1.69-1.32l-.16-.28C255.85,70.38,255.16,70.64,254.55,71Z"/><path class="cls-1" d="M176.86,122.68a20.22,20.22,0,0,1-9.14-3.59c-6.35-4.49-12.8-8.86-19.12-13.4-3.7-2.65-7.26-5.48-10.81-8.33-2.59-2.08-5.06-4.31-7.57-6.5a11,11,0,0,1-2.58-3,3.51,3.51,0,0,1,.09-4,15.29,15.29,0,0,1,2.91-3.19q7.94-5.88,16-11.54c5.47-3.82,11-7.53,16.55-11.28q6.84-4.63,13.71-9.24,10.8-7.26,21.58-14.54,9.17-6.21,18.29-12.51c1.92-1.32,3.77-2.75,5.62-4.17,1.57-1.2,3-2.54,4.64-3.68a17.28,17.28,0,0,1,9.34-3.32A14.62,14.62,0,0,1,243.31,12a41.89,41.89,0,0,1,7.57,4.83c3.79,2.86,7.52,5.81,11.33,8.64,3.42,2.55,6.93,5,10.38,7.47,3,2.19,6,4.43,9,6.62a8.4,8.4,0,0,1,3.13,3.67,8.49,8.49,0,0,1-.84,7.82,17.53,17.53,0,0,1-5.67,5.6c-3.64,2.39-7.08,5-10.55,7.68Q260,70.11,252.21,75.77c-5,3.66-10.11,7.26-15.19,10.84q-12.22,8.6-24.47,17.16c-4.15,2.91-8.27,5.87-12.41,8.79a122.23,122.23,0,0,1-10.58,7.19,22,22,0,0,1-10.82,3C178.31,122.77,177.58,122.78,176.86,122.68Zm11.85-8.34c4.35-3.19,8.78-6.27,13.19-9.38q5.55-3.92,11.15-7.76c4.6-3.18,9.24-6.31,13.84-9.49,6.79-4.68,13.55-9.4,20.34-14.09,4.35-3,8.76-5.94,13.08-9,4-2.84,8-5.82,12-8.68,3.06-2.17,6.2-4.26,9.31-6.37a5.27,5.27,0,0,0,.19-8.6c-4.38-3.21-8.8-6.37-13.18-9.58q-4.75-3.48-9.44-7c-4.47-3.41-8.84-6.94-13.57-10a18.49,18.49,0,0,0-6.38-2.7,13.51,13.51,0,0,0-7.34.67,22.52,22.52,0,0,0-7.27,4.53A94,94,0,0,1,215.08,24q-9.68,6.6-19.36,13.19c-7.27,4.93-14.58,9.83-21.86,14.75-8.89,6-17.8,12-26.63,18-5.45,3.75-10.77,7.7-16.13,11.6-1,.72-2,1.61-1.59,3a5.18,5.18,0,0,0,1.25,2.21c1.54,1.54,3.17,3,4.83,4.39,2.26,1.91,4.51,3.85,6.9,5.61q6.85,5.07,13.89,9.93c4.43,3.06,9,6,13.44,9a14.77,14.77,0,0,0,8.31,2.42A17.45,17.45,0,0,0,188.71,114.34Zm74.51-49.63c-1.61,1.13-3.19,2.3-4.78,3.46a1.43,1.43,0,0,0-.45.39,2.9,2.9,0,0,0-.25.66c.23,0,.52.08.69,0,.86-.55,1.69-1.15,2.53-1.74,1-.75,2.1-1.48,3.11-2.27a11.52,11.52,0,0,0,1.2-1.22l-.18-.25A17.59,17.59,0,0,0,263.22,64.71ZM254.55,71c-1.62,1-3.21,2.07-4.79,3.12a2.93,2.93,0,0,0-.68.68.57.57,0,0,0,0,.48c0,.07.29.1.41,0a5.84,5.84,0,0,0,1-.5c1.51-1,3-2.12,4.53-3.19.58-.42,1.12-.88,1.69-1.32l-.16-.28C255.85,70.38,255.16,70.64,254.55,71Z"/><path class="cls-1" d="M178.74,123.18h-.44c-.43,0-1,0-1.49-.11h0a20.67,20.67,0,0,1-9.31-3.66q-4-2.82-8-5.59c-3.66-2.54-7.44-5.17-11.12-7.81s-7.42-5.61-10.82-8.34c-2-1.63-4-3.37-5.93-5.06L130,91.15A11.2,11.2,0,0,1,127.3,88a3.86,3.86,0,0,1,.12-4.38,15.84,15.84,0,0,1,3-3.27c5.61-4.16,10.86-7.93,16-11.55,4.15-2.9,8.42-5.78,12.55-8.57l4-2.7q5-3.39,10-6.74l10.2-6.87q7.55-5.07,15.09-10.18c6.15-4.16,12.3-8.37,18.29-12.5,1.83-1.27,3.64-2.65,5.38-4l.23-.18c.63-.49,1.26-1,1.88-1.51.88-.73,1.8-1.49,2.76-2.17a17.79,17.79,0,0,1,9.55-3.4,15,15,0,0,1,7.1,1.6,42.77,42.77,0,0,1,7.64,4.87q2.5,1.89,5,3.81c2.07,1.6,4.22,3.25,6.35,4.83s4.15,3,6.18,4.47q2.11,1.48,4.2,3c1.56,1.13,3.12,2.28,4.67,3.43l4.33,3.19A8.92,8.92,0,0,1,285.08,43a8.83,8.83,0,0,1-.87,8.16,17.59,17.59,0,0,1-5.79,5.73c-3.3,2.17-6.48,4.59-9.57,6.94l-1,.72c-4.94,3.75-10.14,7.62-15.46,11.49s-10.36,7.43-15.2,10.84c-4.56,3.22-9.13,6.41-13.7,9.61l-10.77,7.55q-3.18,2.23-6.34,4.49l-6.07,4.3c-.91.64-1.81,1.29-2.71,1.94a78.75,78.75,0,0,1-7.91,5.27A22.17,22.17,0,0,1,178.74,123.18ZM236.92,10.77h-.51A17,17,0,0,0,227.27,14c-.94.67-1.85,1.42-2.72,2.14-.63.52-1.26,1-1.9,1.53l-.23.18c-1.75,1.34-3.56,2.73-5.41,4-6,4.14-12.15,8.35-18.3,12.51q-7.53,5.12-15.1,10.18l-10.19,6.86c-3.33,2.25-6.67,4.49-10,6.74l-4,2.71c-4.13,2.79-8.4,5.67-12.54,8.57-5.17,3.6-10.4,7.38-16,11.53a14.67,14.67,0,0,0-2.82,3.09,3.09,3.09,0,0,0-.06,3.58,10.49,10.49,0,0,0,2.48,2.91L132.13,92c1.91,1.69,3.89,3.42,5.9,5,3.39,2.72,7,5.6,10.79,8.31s7.45,5.27,11.11,7.8q4,2.79,8,5.6a19.65,19.65,0,0,0,9,3.53h0c.5.07,1,.08,1.41.1l.44,0a21.6,21.6,0,0,0,10.61-3,78.91,78.91,0,0,0,7.83-5.22c.9-.65,1.8-1.31,2.72-2l6.07-4.3q3.16-2.25,6.34-4.49,5.37-3.78,10.77-7.55c4.56-3.2,9.13-6.39,13.69-9.61,4.85-3.41,10-7.06,15.19-10.83S262.5,67.72,267.43,64l1-.73c3.09-2.35,6.29-4.78,9.61-7a17,17,0,0,0,5.55-5.48,8.08,8.08,0,0,0,.81-7.48,7.9,7.9,0,0,0-3-3.5L277,36.64l-4.66-3.43c-1.39-1-2.79-2-4.19-3-2-1.45-4.15-2.95-6.2-4.47s-4.28-3.24-6.36-4.84c-1.65-1.27-3.3-2.55-5-3.81a42.07,42.07,0,0,0-7.5-4.78A14.66,14.66,0,0,0,236.92,10.77ZM178.15,118.5h0a15.34,15.34,0,0,1-8.52-2.49L167,114.28c-3.57-2.35-7.26-4.78-10.84-7.26-4.58-3.16-9.26-6.5-13.9-9.93-2.13-1.57-4.18-3.31-6.16-5l-.76-.64c-2-1.7-3.51-3.06-4.86-4.41a5.63,5.63,0,0,1-1.34-2.38c-.48-1.8,1-2.89,1.74-3.42l3.7-2.69c4-3,8.23-6,12.43-8.91,6.56-4.52,13.27-9,19.76-13.41l6.87-4.63,9.14-6.16,12.73-8.59q6.62-4.48,13.22-9l6.13-4.18a97.21,97.21,0,0,0,9.49-7.08,22.79,22.79,0,0,1,7.4-4.62,13.84,13.84,0,0,1,7.54-.68,18.82,18.82,0,0,1,6.52,2.76c3.77,2.42,7.37,5.2,10.85,7.88l2.74,2.11c2.83,2.16,5.83,4.39,9.43,7l6.45,4.68,6.73,4.9a5.53,5.53,0,0,1,2.3,4.59,5.75,5.75,0,0,1-2.5,4.64l-2.27,1.53c-2.31,1.57-4.71,3.19-7,4.84-1.89,1.34-3.76,2.71-5.63,4.08-2.07,1.52-4.21,3.09-6.34,4.6-2.62,1.85-5.32,3.68-7.92,5.45-1.73,1.17-3.46,2.35-5.17,3.54q-5,3.45-10,6.92L227.11,88q-3.59,2.48-7.19,4.92l-6.65,4.56c-4,2.72-7.6,5.26-11.15,7.77l-2.34,1.64c-3.57,2.51-7.26,5.1-10.84,7.73h0A17.89,17.89,0,0,1,178.15,118.5ZM236.79,11.82a14.21,14.21,0,0,0-4.78.89,22.07,22.07,0,0,0-7.15,4.46,94.89,94.89,0,0,1-9.57,7.14l-6.12,4.18q-6.61,4.52-13.23,9l-12.73,8.59q-4.58,3.07-9.14,6.16l-6.87,4.63c-6.49,4.37-13.2,8.89-19.75,13.4-4.19,2.89-8.38,6-12.42,8.9l-3.7,2.7c-1.08.78-1.73,1.52-1.44,2.59a4.65,4.65,0,0,0,1.14,2c1.33,1.33,2.81,2.67,4.81,4.36l.76.65c2,1.67,4,3.4,6.11,5,4.64,3.42,9.31,6.76,13.89,9.92,3.57,2.47,7.26,4.9,10.82,7.25l2.62,1.72a14.44,14.44,0,0,0,8.09,2.37h0a17.18,17.18,0,0,0,10.34-3.7h0c3.58-2.63,7.28-5.23,10.85-7.74l2.33-1.64c3.56-2.51,7.21-5.05,11.16-7.77,2.22-1.53,4.44-3,6.66-4.56,2.39-1.64,4.79-3.27,7.18-4.92L237,80.23l10-6.93,5.18-3.54c2.6-1.77,5.29-3.6,7.9-5.44,2.13-1.5,4.27-3.07,6.34-4.59,1.87-1.37,3.74-2.74,5.64-4.09,2.32-1.65,4.72-3.27,7-4.84l2.27-1.54a4.94,4.94,0,0,0,2.16-4,4.79,4.79,0,0,0-2-4l-6.73-4.9c-2.15-1.55-4.31-3.11-6.45-4.68-3.61-2.65-6.61-4.89-9.44-7l-2.75-2.11c-3.46-2.67-7.05-5.44-10.8-7.84a18,18,0,0,0-6.25-2.66A12.4,12.4,0,0,0,236.79,11.82Zm12.52,63.94a.63.63,0,0,1-.6-.3,1,1,0,0,1,.06-.86,3.35,3.35,0,0,1,.77-.78c1.47-1,3.14-2.09,4.8-3.12h0a11.93,11.93,0,0,1,1.38-.7l.62-.28.33-.16.48.89-.79.62c-.39.31-.77.62-1.17.9q-2.25,1.62-4.53,3.19a5.14,5.14,0,0,1-1,.54A.73.73,0,0,1,249.31,75.76Zm5.39-4.38c-1.64,1-3.28,2.12-4.73,3.08a2.35,2.35,0,0,0-.49.47,4.56,4.56,0,0,0,.74-.4Q252.47,73,254.7,71.38Zm3.49-1.75h-.25l-.19,0h-.55l.24-.7a2.11,2.11,0,0,1,.22-.55,1.45,1.45,0,0,1,.48-.45l1.22-.89c1.21-.88,2.41-1.77,3.64-2.62h0a10.79,10.79,0,0,1,1.32-.74l.59-.29.29-.15.58.77-.23.23-.35.39a7.33,7.33,0,0,1-.89.87c-.85.66-1.73,1.29-2.59,1.9l-.54.38c-.86.61-1.69,1.21-2.54,1.76A.81.81,0,0,1,258.19,69.63Zm5.93-5a6.71,6.71,0,0,0-.68.4h0c-1.22.85-2.43,1.73-3.63,2.61l-1.23.9a.79.79,0,0,0-.27.23.43.43,0,0,0,0,.07c.8-.52,1.62-1.1,2.41-1.67l.59-.42c.85-.6,1.73-1.23,2.57-1.87Z"/><path class="cls-1" d="M153.53,70.25c5.2-3.76,10.39-7.54,15.66-11.2q13.51-9.39,27.13-18.64c6.35-4.32,12.79-8.52,19.19-12.77q5.6-3.72,11.19-7.44a.71.71,0,0,1,.93,0c5.78,4,11.59,7.87,17.35,11.87,4.06,2.81,8.05,5.74,12.07,8.61l12.82,9.18,2.3,1.62c-4.14,2.75-8.23,5.42-12.27,8.16Q250.44,66.05,241,72.56c-5.46,3.77-10.86,7.6-16.33,11.35q-9.18,6.27-18.44,12.44c-2.9,1.91-5.85,3.75-8.86,5.48-3.61,2.07-7.42,3.81-10.5,6.76a474,474,0,0,0-42.57-31.54C147.44,74.74,150.46,72.46,153.53,70.25Zm33.17,36.92c1.87-1.23,3.68-2.52,5.58-3.64,2.85-1.68,5.83-3.11,8.62-4.87,4.47-2.82,8.86-5.77,13.23-8.75,8.12-5.55,16.2-11.15,24.29-16.73,5.64-3.89,11.25-7.8,16.91-11.64,4.9-3.34,9.86-6.59,14.8-9.88l.3-.21-1.67-1.17Q261,44.75,253.3,39.21c-5.77-4.11-11.55-8.22-17.36-12.28-2.76-1.94-5.61-3.75-8.41-5.63-.32-.21-.51-.11-.77.06C223.4,23.59,220,25.8,216.65,28c-6.24,4.14-12.49,8.26-18.7,12.44-5.92,4-11.82,8-17.66,12.06q-12.07,8.43-24,17c-3.28,2.32-6.49,4.74-9.73,7.12l-.45.37A471.25,471.25,0,0,1,186.7,107.17Z"/><path class="cls-1" d="M157.79,101.49a3.94,3.94,0,0,1-3.17-3.75c0-2.08,1.54-3.25,3.69-3.13A8.77,8.77,0,0,1,162.38,96a2.45,2.45,0,0,1,1.35,2.71c0,.28,0,.67-.12.85a6.38,6.38,0,0,1-4.72,2.13C158.58,101.6,158.18,101.57,157.79,101.49Zm5-2.38a1.07,1.07,0,0,0,.26-1.38,2.81,2.81,0,0,0-1-1.15A8.5,8.5,0,0,0,158,95.44,2.2,2.2,0,0,0,155.61,97a2.63,2.63,0,0,0,1,2.84,3.34,3.34,0,0,0,2.21.79A6.5,6.5,0,0,0,162.82,99.11Z"/><path class="cls-1" d="M261,32.07c-.28-.26-.53-.54-.83-.77-2.25-1.7-4.5-3.38-6.76-5.06-.28-.21-.64-.64-1-.23s.15.73.43.94q3.39,2.48,6.82,4.88a6,6,0,0,0,1.19.49Z"/><path class="cls-1" d="M265.21,34.22a1.21,1.21,0,0,0-1.19,1,.75.75,0,0,0,0,.3c.09.3,1.26.69,1.74.58s.56-.47.52-.87A1.08,1.08,0,0,0,265.21,34.22Z"/><path class="cls-1" d="M237,33.6c-.09.75-.25,1.5-.27,2.25-.14,3.89-.24,7.78-.37,11.67q-.21,6.58-.46,13.18c0,1-.1,2.08-.1,3.12a2.52,2.52,0,0,0,.34.83c.12-.26.26-.51.37-.78a1.29,1.29,0,0,0,.09-.45c0-1.82.07-3.64.12-5.45.1-3.43.22-6.85.32-10.27,0-1.55.08-3.1.14-4.65.07-1.95.18-3.9.22-5.86,0-1.08-.06-2.16-.11-3.24a1.48,1.48,0,0,0-.13-.35Z"/><path class="cls-1" d="M229.92,32c-.12.76-.3,1.51-.37,2.28-.25,3-.47,6-.69,9.07-.13,1.93-.23,3.86-.37,5.79-.15,2.1-.35,4.19-.52,6.29a15.89,15.89,0,0,0,0,1.69c0,.16.19.32.29.49.1-.14.25-.28.27-.43.13-.86.28-1.71.34-2.58.18-2.74.31-5.48.48-8.22.18-2.89.4-5.78.57-8.68.11-1.75.16-3.51.23-5.27a2,2,0,0,0,0-.42Z"/><path class="cls-1" d="M244.42,60.79c.65-1.56,1.09-19.06.43-20.32-.13.22-.29.37-.29.52,0,1.27.05,2.55.07,3.82,0,.21,0,.43,0,.64,0,2.89,0,5.77-.13,8.66,0,2.22-.18,4.44-.28,6.67Z"/><path class="cls-1" d="M253,57.17c.06-.56.16-1.12.17-1.67,0-2.83.1-5.66.09-8.48,0-1.36-.13-2.71-.2-4.06a1.33,1.33,0,0,0,0-.4,5.54,5.54,0,0,0-.33-.51,1.82,1.82,0,0,0-.19.52c.06,2.81.14,5.62.21,8.42,0,1.9.09,3.8.13,5.69,0,.16,0,.32,0,.48Z"/><path class="cls-1" d="M218.33,32.22c-.06.4-.14.81-.18,1.21-.17,2-.32,4-.48,6.06-.11,1.29-.23,2.58-.31,3.87a5.4,5.4,0,0,0,.09,1.2,1.57,1.57,0,0,0,.24.41c.11-.12.29-.23.3-.36a22.15,22.15,0,0,0,.25-2.3c.1-3.15.17-6.3.25-9.45,0-.21,0-.42,0-.63Z"/><path class="cls-1" d="M267.58,83.93c4.73,0,9.46,0,14.19,0,4.93,0,10.21,4.39,10.6,9.32.4,5.09.35,10.22.27,15.32a12.36,12.36,0,0,1-1.25,5.09,11.16,11.16,0,0,1-10.3,6.47c-.87,0-1.73,0-2.6,0a5.33,5.33,0,0,0-4.06,1.69c-1.67,1.7-3.37,3.38-5.06,5.07-1.36,1.36-2.42,1.39-3.79.06-1.61-1.58-3.26-3.13-4.78-4.79a5.91,5.91,0,0,0-5-2,13.43,13.43,0,0,1-7.32-1.29,11.43,11.43,0,0,1-6.34-10.42c-.06-4.21,0-8.42,0-12.63A11.74,11.74,0,0,1,251.83,84a7.54,7.54,0,0,1,1.43-.07ZM267.32,98a2.85,2.85,0,0,1-.3-.27c-2-2-4.08-2.35-6.39-.94a4.87,4.87,0,0,0-1.72,6,14.07,14.07,0,0,0,7.75,7.77,2.38,2.38,0,0,0,1.83-.09,15.3,15.3,0,0,0,7.12-6.74,5.59,5.59,0,0,0-.47-6.19,4.79,4.79,0,0,0-5.33-1.14A15.68,15.68,0,0,0,267.32,98Z"/><path class="cls-1" d="M240.27,161.74a15.93,15.93,0,1,1,15.93-15.93A15.94,15.94,0,0,1,240.27,161.74Zm0-30.35a14.42,14.42,0,1,0,14.42,14.42A14.44,14.44,0,0,0,240.27,131.39Z"/><path class="cls-1" d="M289.76,137a4.43,4.43,0,1,1-4.42,4.43,4.42,4.42,0,0,1,4.42-4.43m0-1.87a6.3,6.3,0,1,0,6.3,6.3,6.31,6.31,0,0,0-6.3-6.3Z"/><path class="cls-1" d="M270.3,160.72a4.43,4.43,0,1,1-4.43,4.42,4.42,4.42,0,0,1,4.43-4.42m0-1.88a6.3,6.3,0,1,0,6.3,6.3,6.31,6.31,0,0,0-6.3-6.3Z"/><circle class="cls-4" cx="240.11" cy="145.81" r="4.42"/><path class="cls-1" d="M240.11,141.39a4.42,4.42,0,1,1-4.42,4.42,4.42,4.42,0,0,1,4.42-4.42m0-1.88a6.3,6.3,0,1,0,6.3,6.3,6.31,6.31,0,0,0-6.3-6.3Z"/><path class="cls-1" d="M194.93,150.23a4.43,4.43,0,1,1-4.42,4.43,4.43,4.43,0,0,1,4.42-4.43m0-1.87a6.3,6.3,0,1,0,6.3,6.3,6.31,6.31,0,0,0-6.3-6.3Z"/><path class="cls-1" d="M169.56,169.37a4.43,4.43,0,1,1-4.43,4.43,4.42,4.42,0,0,1,4.43-4.43m0-1.87a6.3,6.3,0,1,0,6.3,6.3,6.3,6.3,0,0,0-6.3-6.3Z"/><path class="cls-1" d="M174,172.14a.93.93,0,0,1-.55-1.69L190,158.33a.94.94,0,0,1,1.11,1.51L174.54,172A1,1,0,0,1,174,172.14Z"/><path class="cls-1" d="M200.83,154.58a.94.94,0,0,1-.16-1.86l23.09-4.08a.93.93,0,1,1,.32,1.84L201,154.57Z"/><path class="cls-1" d="M274.72,161.78a.94.94,0,0,1-.57-.2.93.93,0,0,1-.17-1.31l11.47-15a1,1,0,0,1,1.32-.18.94.94,0,0,1,.17,1.32l-11.47,15A1,1,0,0,1,274.72,161.78Z"/><path class="cls-1" d="M265.87,162.74a1,1,0,0,1-.6-.22l-10.92-9.05a.94.94,0,1,1,1.19-1.45l10.93,9a1,1,0,0,1,.13,1.33A1,1,0,0,1,265.87,162.74Z"/><path class="cls-1" d="M237.81,182.8a.93.93,0,0,1-.66-.27l-11.44-11.44a.94.94,0,0,1,1.33-1.33l11.44,11.44a1,1,0,0,1,0,1.33A1,1,0,0,1,237.81,182.8Z"/><path class="cls-1" d="M226.37,182.8a.94.94,0,0,1-.66-1.6l11.44-11.44a.94.94,0,0,1,1.33,0,1,1,0,0,1,0,1.33L227,182.53A1,1,0,0,1,226.37,182.8Z"/><rect class="cls-1" x="255.45" y="180.28" width="42.29" height="5.18"/><rect class="cls-1" x="255.45" y="191.42" width="42.29" height="5.18"/><rect class="cls-1" x="255.45" y="201.45" width="23.94" height="5.18"/><path class="cls-1" d="M80.5,83.5v4.71a1.61,1.61,0,0,0,3.22,0V83.5a1.61,1.61,0,1,0-3.22,0Z"/><path class="cls-1" d="M92.07,83.07v4.71a1.61,1.61,0,1,0,3.21,0V83.07a1.61,1.61,0,1,0-3.21,0Z"/><path class="cls-1" d="M79.62,98.12a10.37,10.37,0,0,0,9.2,6.57,10.26,10.26,0,0,0,9.43-5.94,1.66,1.66,0,0,0-.58-2.2,1.62,1.62,0,0,0-2.2.58,7.15,7.15,0,0,1-6.42,4.35,7,7,0,0,1-6.33-4.22,1.66,1.66,0,0,0-2-1.12,1.62,1.62,0,0,0-1.12,2Z"/><path class="cls-1" d="M88.56,73.39v1.93h.59a16.7,16.7,0,0,1-.57,33.4H88a16.7,16.7,0,0,1,.57-33.4V73.39m0,0a18.64,18.64,0,0,0-.63,37.26h.65a18.64,18.64,0,0,0,.63-37.26Z"/><path class="cls-1" d="M82.11,89.82a1.61,1.61,0,0,0,0-3.22,1.61,1.61,0,0,0,0,3.22Z"/><path class="cls-1" d="M93.67,89.39a1.61,1.61,0,0,0,0-3.22,1.61,1.61,0,0,0,0,3.22Z"/><path class="cls-1" d="M105.61,183.25a1,1,0,0,1-.29-.05.88.88,0,0,1-.6-.84V163.44a5,5,0,0,1,5-5h21.38a5,5,0,0,1,5,5V173a5,5,0,0,1-5,5H110.18l-3.87,4.93A.88.88,0,0,1,105.61,183.25Zm4.13-23.05a3.25,3.25,0,0,0-3.24,3.24v16.33l2.54-3.24a.91.91,0,0,1,.7-.34h21.38a3.24,3.24,0,0,0,3.23-3.24v-9.51a3.24,3.24,0,0,0-3.23-3.24Z"/><path class="cls-1" d="M147.26,193.58a.91.91,0,0,1-.71-.34l-3.86-4.93H121.75a5,5,0,0,1-5-5v-9.51a5,5,0,0,1,5-5h21.38a5,5,0,0,1,5,5v18.91a.9.9,0,0,1-.6.85A1,1,0,0,1,147.26,193.58Zm-25.51-23.05a3.25,3.25,0,0,0-3.24,3.24v9.51a3.25,3.25,0,0,0,3.24,3.24h21.38a.91.91,0,0,1,.7.34l2.53,3.24V173.77a3.24,3.24,0,0,0-3.23-3.24Z"/><path class="cls-1" d="M72.28,217.73s-1.35-21.6,10.35-21.6c0,0,7.65,6.75,15.3,0,0,0,11.25-.9,11.25,21.6h-8.55l-.9-4-3.6,4H82.63l-2.25-3.15-.9,3.15Z"/><path class="cls-1" d="M109.52,218.08h-9.17l-.81-3.66-3.26,3.66H82.45l-1.94-2.72-.77,2.72H72l0-.33c0-.55-.78-13.6,4.61-19.34a8.06,8.06,0,0,1,6.09-2.62h.13l.09.08c.31.27,7.52,6.47,14.85,0l.08-.07h.12a8.29,8.29,0,0,1,5.9,2.46c3.8,3.51,5.72,10.06,5.72,19.48Zm-8.62-.69h7.93c-.06-11.22-3-16.32-5.48-18.61a8.22,8.22,0,0,0-5.29-2.31c-7.27,6.32-14.6.79-15.56,0A7.38,7.38,0,0,0,77,198.89c-4.73,5-4.52,16.43-4.44,18.5h6.62l1-3.59,2.56,3.59H96l4-4.44Z"/><path class="cls-1" d="M98.8,185.78a8.1,8.1,0,1,1-8.1-8.1A8.1,8.1,0,0,1,98.8,185.78Z"/><path class="cls-1" d="M90.7,194.22a8.45,8.45,0,1,1,8.45-8.44A8.45,8.45,0,0,1,90.7,194.22Zm0-16.2a7.76,7.76,0,1,0,7.76,7.76A7.77,7.77,0,0,0,90.7,178Z"/><path class="cls-1" d="M157.13,213a2.68,2.68,0,0,1-.77,1.87,2.59,2.59,0,0,1-1.94.8,2.62,2.62,0,0,1-1.93-.79,2.54,2.54,0,0,1-.79-1.84,2.75,2.75,0,0,1,4.66-1.9A2.54,2.54,0,0,1,157.13,213Z"/><path class="cls-1" d="M169.87,213a2.67,2.67,0,0,1-.76,1.87,2.75,2.75,0,0,1-3.87,0,2.5,2.5,0,0,1-.79-1.84,2.66,2.66,0,0,1,2.71-2.67,2.66,2.66,0,0,1,2,.77A2.53,2.53,0,0,1,169.87,213Z"/><path class="cls-1" d="M182.62,213a2.67,2.67,0,0,1-.76,1.87,2.75,2.75,0,0,1-3.87,0,2.5,2.5,0,0,1-.79-1.84,2.66,2.66,0,0,1,2.71-2.67,2.66,2.66,0,0,1,2,.77A2.53,2.53,0,0,1,182.62,213Z"/><path class="cls-1" d="M74.47,127.21H71.54L69.12,141.1H67.67l2.43-13.89H67.17l.22-1.24h7.29Z"/><path class="cls-1" d="M80.69,134.05a10.51,10.51,0,0,1-.34,2.67,8.71,8.71,0,0,1-.95,2.38,5.55,5.55,0,0,1-1.49,1.71,3.19,3.19,0,0,1-2,.66,2.61,2.61,0,0,1-2.2-1.06,4.61,4.61,0,0,1-.79-2.83,11.19,11.19,0,0,1,.33-2.69,9,9,0,0,1,.94-2.39,5.52,5.52,0,0,1,1.48-1.71,3.1,3.1,0,0,1,2-.65,2.61,2.61,0,0,1,2.24,1.06A4.74,4.74,0,0,1,80.69,134.05Zm-1.44.06a4.23,4.23,0,0,0-.4-2,1.37,1.37,0,0,0-1.3-.75,1.78,1.78,0,0,0-1.33.61,5.43,5.43,0,0,0-1,1.55,10.15,10.15,0,0,0-.62,2,10.67,10.67,0,0,0-.21,2,4,4,0,0,0,.39,1.92,1.36,1.36,0,0,0,1.29.73,1.83,1.83,0,0,0,1.35-.6,5.07,5.07,0,0,0,1-1.51,9.53,9.53,0,0,0,.62-2A10.57,10.57,0,0,0,79.25,134.11Z"/><path class="cls-1" d="M88.81,141.1H87.46l.35-1.94h0a4.89,4.89,0,0,1-1.15,1.64,2.53,2.53,0,0,1-1.81.67,2.09,2.09,0,0,1-1.92-1,5.31,5.31,0,0,1-.62-2.73,12.13,12.13,0,0,1,.3-2.63,9.66,9.66,0,0,1,.88-2.44,5.6,5.6,0,0,1,1.41-1.8,2.86,2.86,0,0,1,1.88-.69,2,2,0,0,1,1.55.6,2.71,2.71,0,0,1,.63,1.58h0l1.29-7.38h1.36Zm-.25-7a4.35,4.35,0,0,0-.4-2,1.31,1.31,0,0,0-1.24-.75,1.85,1.85,0,0,0-1.37.61,5.45,5.45,0,0,0-1,1.55,9.44,9.44,0,0,0-.61,2,10.13,10.13,0,0,0-.22,2,3.86,3.86,0,0,0,.4,1.9,1.3,1.3,0,0,0,1.24.73,1.82,1.82,0,0,0,1.33-.61,5.28,5.28,0,0,0,1-1.52,9,9,0,0,0,.64-2A9.92,9.92,0,0,0,88.56,134.11Z"/><path class="cls-1" d="M98.88,132.91a5.85,5.85,0,0,1,0,.73c0,.24-.07.51-.13.79L98,138.84c0,.15-.06.34-.08.54s-.06.42-.1.64-.06.43-.09.62,0,.35,0,.46H96.49c0-.24.05-.56.1-1s.12-.74.18-1h0a3.94,3.94,0,0,1-1.09,1.64,2.55,2.55,0,0,1-1.77.62,2,2,0,0,1-1.55-.63,2.55,2.55,0,0,1-.59-1.83,4.27,4.27,0,0,1,.45-2.06,3.8,3.8,0,0,1,1.15-1.32,4.8,4.8,0,0,1,1.58-.7,7.42,7.42,0,0,1,1.72-.21h.79c.07-.43.12-.75.15-1s0-.38,0-.51a2,2,0,0,0-.41-1.38,1.49,1.49,0,0,0-1.15-.44,2.41,2.41,0,0,0-1.19.32,3.74,3.74,0,0,0-1,.82l-.64-.86a4.07,4.07,0,0,1,3-1.47,2.5,2.5,0,0,1,2,.73A3,3,0,0,1,98.88,132.91Zm-2.41,2.78a5.7,5.7,0,0,0-1.25.14,3.11,3.11,0,0,0-1.11.5,2.53,2.53,0,0,0-.79.94,3.19,3.19,0,0,0-.3,1.46,1.54,1.54,0,0,0,.37,1.13,1.2,1.2,0,0,0,.92.39,1.76,1.76,0,0,0,1.09-.36,3.62,3.62,0,0,0,.81-.92,5.91,5.91,0,0,0,.56-1.22c.14-.44.25-.87.34-1.29l.15-.77Z"/><path class="cls-1" d="M102.82,143.43a7.45,7.45,0,0,1-1.26,2.08,2.34,2.34,0,0,1-1.8.73,2.64,2.64,0,0,1-.92-.15l.28-1.27a1.41,1.41,0,0,0,.66.13,1.25,1.25,0,0,0,1-.44,4.71,4.71,0,0,0,.69-1.18l.79-1.93-1.15-10.9h1.43l.71,9h0l3.65-9h1.44Z"/><path class="cls-1" d="M114.06,141.1h-1.45L115.24,126h1.45Z"/><path class="cls-1" d="M127.47,125.86a1.27,1.27,0,0,0-.28-.06,1.66,1.66,0,0,0-.32,0,1.34,1.34,0,0,0-.76.22,1.82,1.82,0,0,0-.52.55,3.08,3.08,0,0,0-.35.78c-.08.3-.15.6-.21.91l-.38,2.27h1.75l-.19,1.13h-1.76l-1.64,9.47h-1.35l1.63-9.47h-1.46l.19-1.13h1.46l.4-2.25a9.63,9.63,0,0,1,.4-1.48,3.9,3.9,0,0,1,.63-1.16,2.77,2.77,0,0,1,.92-.75,2.86,2.86,0,0,1,1.24-.26,2.3,2.3,0,0,1,.81.13Z"/><path class="cls-1" d="M133.84,133.58c0,.27,0,.59-.05,1s-.11.9-.23,1.55H128a8.16,8.16,0,0,0-.13,1.46,3.51,3.51,0,0,0,.45,1.9,1.51,1.51,0,0,0,1.37.7,1.87,1.87,0,0,0,1.29-.47,3.87,3.87,0,0,0,.91-1.13l1,.64a5.82,5.82,0,0,1-1.37,1.61,3.06,3.06,0,0,1-2,.66,2.76,2.76,0,0,1-2.29-1,4.43,4.43,0,0,1-.81-2.83,11.33,11.33,0,0,1,.32-2.63,9,9,0,0,1,.93-2.41,6.1,6.1,0,0,1,1.47-1.76,3.06,3.06,0,0,1,2-.68,2.88,2.88,0,0,1,1.27.25,2.26,2.26,0,0,1,.86.73,3.14,3.14,0,0,1,.48,1.1A5.84,5.84,0,0,1,133.84,133.58Zm-1.31,0a3.08,3.08,0,0,0-.37-1.62,1.27,1.27,0,0,0-1.19-.62,1.71,1.71,0,0,0-1.09.37,3.91,3.91,0,0,0-.82.93,6.16,6.16,0,0,0-.58,1.18,6.88,6.88,0,0,0-.31,1.09h4.22c0-.27.07-.51.1-.72A4.26,4.26,0,0,0,132.53,133.62Z"/><path class="cls-1" d="M142.78,133.58a9.44,9.44,0,0,1-.06,1c0,.38-.11.9-.22,1.55h-5.6a8.16,8.16,0,0,0-.13,1.46,3.51,3.51,0,0,0,.45,1.9,1.5,1.5,0,0,0,1.37.7,1.89,1.89,0,0,0,1.29-.47,4,4,0,0,0,.91-1.13l1,.64a5.63,5.63,0,0,1-1.36,1.61,3.08,3.08,0,0,1-2,.66,2.75,2.75,0,0,1-2.29-1,4.43,4.43,0,0,1-.81-2.83,10.81,10.81,0,0,1,.32-2.63,9,9,0,0,1,.93-2.41,5.8,5.8,0,0,1,1.47-1.76,3.06,3.06,0,0,1,2-.68,2.88,2.88,0,0,1,1.27.25,2.26,2.26,0,0,1,.86.73,3.14,3.14,0,0,1,.48,1.1A5.84,5.84,0,0,1,142.78,133.58Zm-1.31,0a3.08,3.08,0,0,0-.37-1.62,1.28,1.28,0,0,0-1.19-.62,1.69,1.69,0,0,0-1.09.37,3.7,3.7,0,0,0-.82.93,5.62,5.62,0,0,0-.58,1.18,6.88,6.88,0,0,0-.31,1.09h4.21c.05-.27.08-.51.11-.72A4.26,4.26,0,0,0,141.47,133.62Z"/><path class="cls-1" d="M145.58,141.1h-1.39L147,124.94h1.39Z"/><path class="cls-1" d="M150.56,140.06a1.21,1.21,0,0,1-.31.84,1,1,0,0,1-.78.35.8.8,0,0,1-.63-.26,1,1,0,0,1-.23-.63,1.35,1.35,0,0,1,.29-.83.93.93,0,0,1,.78-.37.83.83,0,0,1,.66.25A1,1,0,0,1,150.56,140.06Z"/><path class="cls-1" d="M155.09,140.06a1.21,1.21,0,0,1-.31.84,1,1,0,0,1-.78.35.8.8,0,0,1-.63-.26,1,1,0,0,1-.22-.63,1.29,1.29,0,0,1,.29-.83.92.92,0,0,1,.78-.37.82.82,0,0,1,.65.25A1,1,0,0,1,155.09,140.06Z"/><path class="cls-1" d="M159.62,140.06a1.21,1.21,0,0,1-.31.84,1,1,0,0,1-.78.35.8.8,0,0,1-.63-.26,1,1,0,0,1-.22-.63,1.29,1.29,0,0,1,.29-.83.92.92,0,0,1,.78-.37.82.82,0,0,1,.65.25A1,1,0,0,1,159.62,140.06Z"/></svg>